<mxfile host="app.diagrams.net" modified="2024-05-20T21:06:27.881Z" agent="Mozilla/5.0 (Macintosh; Intel Mac OS X 10_15_7) AppleWebKit/537.36 (KHTML, like Gecko) Chrome/124.0.0.0 Safari/537.36" etag="w4rJR8qTEEhOEGLXpSZ2" version="24.2.1" type="device">
  <diagram name="PÃ¡gina-1" id="FqKYfD_SOyTXHDJigz5j">
    <mxGraphModel dx="1004" dy="1807" grid="1" gridSize="10" guides="1" tooltips="1" connect="1" arrows="1" fold="1" page="1" pageScale="1" pageWidth="827" pageHeight="1169" math="0" shadow="0">
      <root>
        <mxCell id="0" />
        <mxCell id="1" parent="0" />
        <mxCell id="D51h7gy9ocJduFFVFfwa-1" value="" style="shape=folder;fontStyle=1;spacingTop=10;tabWidth=40;tabHeight=14;tabPosition=left;html=1;whiteSpace=wrap;fillColor=#dae8fc;strokeColor=#6c8ebf;" parent="1" vertex="1">
          <mxGeometry x="40" y="-710" width="760" height="1780" as="geometry" />
        </mxCell>
        <mxCell id="D51h7gy9ocJduFFVFfwa-45" value="" style="shape=folder;fontStyle=1;spacingTop=10;tabWidth=40;tabHeight=14;tabPosition=left;html=1;whiteSpace=wrap;fillColor=#ffe6cc;strokeColor=#d79b00;" parent="1" vertex="1">
          <mxGeometry x="60" y="-690" width="720" height="470" as="geometry" />
        </mxCell>
        <mxCell id="D51h7gy9ocJduFFVFfwa-2" value="" style="shape=folder;fontStyle=1;spacingTop=10;tabWidth=40;tabHeight=14;tabPosition=left;html=1;whiteSpace=wrap;fillColor=#fff2cc;strokeColor=#d6b656;" parent="1" vertex="1">
          <mxGeometry x="81" y="1250" width="679" height="300" as="geometry" />
        </mxCell>
        <mxCell id="D51h7gy9ocJduFFVFfwa-3" value="&lt;blockquote style=&quot;margin: 0 0 0 40px; border: none; padding: 0px;&quot;&gt;CadastroController&lt;/blockquote&gt;" style="swimlane;fontStyle=1;align=center;verticalAlign=top;childLayout=stackLayout;horizontal=1;startSize=26;horizontalStack=0;resizeParent=1;resizeParentMax=0;resizeLast=0;collapsible=1;marginBottom=0;whiteSpace=wrap;html=1;" parent="1" vertex="1">
          <mxGeometry x="105" y="1280" width="320" height="120" as="geometry">
            <mxRectangle x="70" y="340" width="240" height="30" as="alternateBounds" />
          </mxGeometry>
        </mxCell>
        <mxCell id="D51h7gy9ocJduFFVFfwa-4" value="+ cadastroBo: CadastroBo" style="text;strokeColor=none;fillColor=none;align=left;verticalAlign=top;spacingLeft=4;spacingRight=4;overflow=hidden;rotatable=0;points=[[0,0.5],[1,0.5]];portConstraint=eastwest;whiteSpace=wrap;html=1;" parent="D51h7gy9ocJduFFVFfwa-3" vertex="1">
          <mxGeometry y="26" width="320" height="26" as="geometry" />
        </mxCell>
        <mxCell id="D51h7gy9ocJduFFVFfwa-5" value="" style="line;strokeWidth=1;fillColor=none;align=left;verticalAlign=middle;spacingTop=-1;spacingLeft=3;spacingRight=3;rotatable=0;labelPosition=right;points=[];portConstraint=eastwest;strokeColor=inherit;" parent="D51h7gy9ocJduFFVFfwa-3" vertex="1">
          <mxGeometry y="52" width="320" height="8" as="geometry" />
        </mxCell>
        <mxCell id="D51h7gy9ocJduFFVFfwa-6" value="&lt;div&gt;&lt;div&gt;+ CadastroController()&amp;nbsp;&lt;/div&gt;&lt;div&gt;+ inserirCadastro(cadastro: Cadastro): void&amp;nbsp;&lt;/div&gt;&lt;div&gt;+ atualizarCadastro(cadastro: Cadastro): void&lt;br&gt;&lt;/div&gt;&lt;/div&gt;" style="text;strokeColor=none;fillColor=none;align=left;verticalAlign=top;spacingLeft=4;spacingRight=4;overflow=hidden;rotatable=0;points=[[0,0.5],[1,0.5]];portConstraint=eastwest;whiteSpace=wrap;html=1;" parent="D51h7gy9ocJduFFVFfwa-3" vertex="1">
          <mxGeometry y="60" width="320" height="60" as="geometry" />
        </mxCell>
        <mxCell id="D51h7gy9ocJduFFVFfwa-7" value="QuestionarioController" style="swimlane;fontStyle=1;align=center;verticalAlign=top;childLayout=stackLayout;horizontal=1;startSize=26;horizontalStack=0;resizeParent=1;resizeParentMax=0;resizeLast=0;collapsible=1;marginBottom=0;whiteSpace=wrap;html=1;" parent="1" vertex="1">
          <mxGeometry x="441" y="1280" width="290" height="120" as="geometry" />
        </mxCell>
        <mxCell id="D51h7gy9ocJduFFVFfwa-8" value="+ questionarioBo: QuestionarioBo" style="text;strokeColor=none;fillColor=none;align=left;verticalAlign=top;spacingLeft=4;spacingRight=4;overflow=hidden;rotatable=0;points=[[0,0.5],[1,0.5]];portConstraint=eastwest;whiteSpace=wrap;html=1;" parent="D51h7gy9ocJduFFVFfwa-7" vertex="1">
          <mxGeometry y="26" width="290" height="26" as="geometry" />
        </mxCell>
        <mxCell id="D51h7gy9ocJduFFVFfwa-9" value="" style="line;strokeWidth=1;fillColor=none;align=left;verticalAlign=middle;spacingTop=-1;spacingLeft=3;spacingRight=3;rotatable=0;labelPosition=right;points=[];portConstraint=eastwest;strokeColor=inherit;" parent="D51h7gy9ocJduFFVFfwa-7" vertex="1">
          <mxGeometry y="52" width="290" height="8" as="geometry" />
        </mxCell>
        <mxCell id="D51h7gy9ocJduFFVFfwa-10" value="+ QuestionarioController()&amp;nbsp;&lt;div&gt;+ inserirQuestionario(questionario: Questionario): void&lt;br&gt;&lt;/div&gt;" style="text;strokeColor=none;fillColor=none;align=left;verticalAlign=top;spacingLeft=4;spacingRight=4;overflow=hidden;rotatable=0;points=[[0,0.5],[1,0.5]];portConstraint=eastwest;whiteSpace=wrap;html=1;" parent="D51h7gy9ocJduFFVFfwa-7" vertex="1">
          <mxGeometry y="60" width="290" height="60" as="geometry" />
        </mxCell>
        <mxCell id="D51h7gy9ocJduFFVFfwa-11" value="ContatoController" style="swimlane;fontStyle=1;align=center;verticalAlign=top;childLayout=stackLayout;horizontal=1;startSize=26;horizontalStack=0;resizeParent=1;resizeParentMax=0;resizeLast=0;collapsible=1;marginBottom=0;whiteSpace=wrap;html=1;" parent="1" vertex="1">
          <mxGeometry x="110" y="1420" width="310" height="110" as="geometry" />
        </mxCell>
        <mxCell id="D51h7gy9ocJduFFVFfwa-12" value="+ contatoBo: ContatoBo" style="text;strokeColor=none;fillColor=none;align=left;verticalAlign=top;spacingLeft=4;spacingRight=4;overflow=hidden;rotatable=0;points=[[0,0.5],[1,0.5]];portConstraint=eastwest;whiteSpace=wrap;html=1;" parent="D51h7gy9ocJduFFVFfwa-11" vertex="1">
          <mxGeometry y="26" width="310" height="26" as="geometry" />
        </mxCell>
        <mxCell id="D51h7gy9ocJduFFVFfwa-13" value="" style="line;strokeWidth=1;fillColor=none;align=left;verticalAlign=middle;spacingTop=-1;spacingLeft=3;spacingRight=3;rotatable=0;labelPosition=right;points=[];portConstraint=eastwest;strokeColor=inherit;" parent="D51h7gy9ocJduFFVFfwa-11" vertex="1">
          <mxGeometry y="52" width="310" height="8" as="geometry" />
        </mxCell>
        <mxCell id="D51h7gy9ocJduFFVFfwa-14" value="+ ContatoController()&amp;nbsp;&amp;nbsp;&lt;div&gt;+ inserirContato(contato: Contato): void&lt;br&gt;&lt;/div&gt;" style="text;strokeColor=none;fillColor=none;align=left;verticalAlign=top;spacingLeft=4;spacingRight=4;overflow=hidden;rotatable=0;points=[[0,0.5],[1,0.5]];portConstraint=eastwest;whiteSpace=wrap;html=1;" parent="D51h7gy9ocJduFFVFfwa-11" vertex="1">
          <mxGeometry y="60" width="310" height="50" as="geometry" />
        </mxCell>
        <mxCell id="D51h7gy9ocJduFFVFfwa-15" value="QuestFeedbackController" style="swimlane;fontStyle=1;align=center;verticalAlign=top;childLayout=stackLayout;horizontal=1;startSize=26;horizontalStack=0;resizeParent=1;resizeParentMax=0;resizeLast=0;collapsible=1;marginBottom=0;whiteSpace=wrap;html=1;" parent="1" vertex="1">
          <mxGeometry x="441" y="1420" width="300" height="110" as="geometry" />
        </mxCell>
        <mxCell id="D51h7gy9ocJduFFVFfwa-16" value="+ questFeedbackBo: QuestFeedbackBo" style="text;strokeColor=none;fillColor=none;align=left;verticalAlign=top;spacingLeft=4;spacingRight=4;overflow=hidden;rotatable=0;points=[[0,0.5],[1,0.5]];portConstraint=eastwest;whiteSpace=wrap;html=1;" parent="D51h7gy9ocJduFFVFfwa-15" vertex="1">
          <mxGeometry y="26" width="300" height="26" as="geometry" />
        </mxCell>
        <mxCell id="D51h7gy9ocJduFFVFfwa-17" value="" style="line;strokeWidth=1;fillColor=none;align=left;verticalAlign=middle;spacingTop=-1;spacingLeft=3;spacingRight=3;rotatable=0;labelPosition=right;points=[];portConstraint=eastwest;strokeColor=inherit;" parent="D51h7gy9ocJduFFVFfwa-15" vertex="1">
          <mxGeometry y="52" width="300" height="8" as="geometry" />
        </mxCell>
        <mxCell id="D51h7gy9ocJduFFVFfwa-18" value="+ QuestFeedbackController()&amp;nbsp;&lt;div&gt;+ inserir(feedback: QuestFeedback): void&lt;br&gt;&lt;/div&gt;" style="text;strokeColor=none;fillColor=none;align=left;verticalAlign=top;spacingLeft=4;spacingRight=4;overflow=hidden;rotatable=0;points=[[0,0.5],[1,0.5]];portConstraint=eastwest;whiteSpace=wrap;html=1;" parent="D51h7gy9ocJduFFVFfwa-15" vertex="1">
          <mxGeometry y="60" width="300" height="50" as="geometry" />
        </mxCell>
        <mxCell id="D51h7gy9ocJduFFVFfwa-47" value="" style="shape=folder;fontStyle=1;spacingTop=10;tabWidth=40;tabHeight=14;tabPosition=left;html=1;whiteSpace=wrap;fillColor=#ffe6cc;strokeColor=#d79b00;" parent="1" vertex="1">
          <mxGeometry x="60" y="-210" width="730" height="520" as="geometry" />
        </mxCell>
        <mxCell id="D51h7gy9ocJduFFVFfwa-56" value="" style="group" parent="1" vertex="1" connectable="0">
          <mxGeometry x="60" y="320" width="400" height="750" as="geometry" />
        </mxCell>
        <mxCell id="D51h7gy9ocJduFFVFfwa-46" value="" style="shape=folder;fontStyle=1;spacingTop=10;tabWidth=40;tabHeight=14;tabPosition=left;html=1;whiteSpace=wrap;fillColor=#ffe6cc;strokeColor=#d79b00;" parent="D51h7gy9ocJduFFVFfwa-56" vertex="1">
          <mxGeometry width="400" height="730" as="geometry" />
        </mxCell>
        <mxCell id="D51h7gy9ocJduFFVFfwa-48" value="CadastroBo" style="swimlane;fontStyle=1;align=center;verticalAlign=top;childLayout=stackLayout;horizontal=1;startSize=26;horizontalStack=0;resizeParent=1;resizeParentMax=0;resizeLast=0;collapsible=1;marginBottom=0;whiteSpace=wrap;html=1;" parent="D51h7gy9ocJduFFVFfwa-56" vertex="1">
          <mxGeometry x="20" y="39.99932203389831" width="290" height="133.22814728229105" as="geometry" />
        </mxCell>
        <mxCell id="D51h7gy9ocJduFFVFfwa-49" value="- cadastroDao: CadastroDao" style="text;strokeColor=none;fillColor=none;align=left;verticalAlign=top;spacingLeft=4;spacingRight=4;overflow=hidden;rotatable=0;points=[[0,0.5],[1,0.5]];portConstraint=eastwest;whiteSpace=wrap;html=1;" parent="D51h7gy9ocJduFFVFfwa-48" vertex="1">
          <mxGeometry y="26" width="290" height="24" as="geometry" />
        </mxCell>
        <mxCell id="D51h7gy9ocJduFFVFfwa-50" value="" style="line;strokeWidth=1;fillColor=none;align=left;verticalAlign=middle;spacingTop=-1;spacingLeft=3;spacingRight=3;rotatable=0;labelPosition=right;points=[];portConstraint=eastwest;strokeColor=inherit;" parent="D51h7gy9ocJduFFVFfwa-48" vertex="1">
          <mxGeometry y="50" width="290" height="9.468147282291058" as="geometry" />
        </mxCell>
        <mxCell id="D51h7gy9ocJduFFVFfwa-51" value="+ CadastroBo(cadastroDao: CadastroDao)&lt;div&gt;+ inserir(cadastro: Cadastro): void&lt;/div&gt;&lt;div&gt;+ atualizar(cadastro: Cadastro): void&lt;/div&gt;&lt;div&gt;- validarCadastro(cadastro: Cadastro): void&lt;br&gt;&lt;/div&gt;" style="text;strokeColor=none;fillColor=none;align=left;verticalAlign=top;spacingLeft=4;spacingRight=4;overflow=hidden;rotatable=0;points=[[0,0.5],[1,0.5]];portConstraint=eastwest;whiteSpace=wrap;html=1;" parent="D51h7gy9ocJduFFVFfwa-48" vertex="1">
          <mxGeometry y="59.468147282291056" width="290" height="73.76" as="geometry" />
        </mxCell>
        <mxCell id="D51h7gy9ocJduFFVFfwa-78" value="&lt;b&gt;&lt;font style=&quot;font-size: 18px;&quot;&gt;BO&lt;/font&gt;&lt;/b&gt;" style="text;html=1;align=center;verticalAlign=middle;resizable=0;points=[];autosize=1;strokeColor=none;fillColor=none;" parent="D51h7gy9ocJduFFVFfwa-56" vertex="1">
          <mxGeometry x="-5.333333333333333" y="-5.91759205143191" width="50" height="40" as="geometry" />
        </mxCell>
        <mxCell id="yw5yI2BFK46FbXKVoYIi-44" value="ContatoBo" style="swimlane;fontStyle=1;align=center;verticalAlign=top;childLayout=stackLayout;horizontal=1;startSize=26;horizontalStack=0;resizeParent=1;resizeParentMax=0;resizeLast=0;collapsible=1;marginBottom=0;whiteSpace=wrap;html=1;" vertex="1" parent="D51h7gy9ocJduFFVFfwa-56">
          <mxGeometry x="20" y="192.00135593220338" width="290" height="113.22814728229105" as="geometry" />
        </mxCell>
        <mxCell id="yw5yI2BFK46FbXKVoYIi-45" value="- contatoDao: ContatoDao" style="text;strokeColor=none;fillColor=none;align=left;verticalAlign=top;spacingLeft=4;spacingRight=4;overflow=hidden;rotatable=0;points=[[0,0.5],[1,0.5]];portConstraint=eastwest;whiteSpace=wrap;html=1;" vertex="1" parent="yw5yI2BFK46FbXKVoYIi-44">
          <mxGeometry y="26" width="290" height="24" as="geometry" />
        </mxCell>
        <mxCell id="yw5yI2BFK46FbXKVoYIi-46" value="" style="line;strokeWidth=1;fillColor=none;align=left;verticalAlign=middle;spacingTop=-1;spacingLeft=3;spacingRight=3;rotatable=0;labelPosition=right;points=[];portConstraint=eastwest;strokeColor=inherit;" vertex="1" parent="yw5yI2BFK46FbXKVoYIi-44">
          <mxGeometry y="50" width="290" height="9.468147282291058" as="geometry" />
        </mxCell>
        <mxCell id="yw5yI2BFK46FbXKVoYIi-47" value="&lt;div&gt;+ ContatoBo(contatoDao: ContatoDao)&lt;/div&gt;&lt;div&gt;+ inserir(contato: Contato): void&lt;/div&gt;&lt;div&gt;- validarContato(contato: Contato): void&lt;br&gt;&lt;/div&gt;" style="text;strokeColor=none;fillColor=none;align=left;verticalAlign=top;spacingLeft=4;spacingRight=4;overflow=hidden;rotatable=0;points=[[0,0.5],[1,0.5]];portConstraint=eastwest;whiteSpace=wrap;html=1;" vertex="1" parent="yw5yI2BFK46FbXKVoYIi-44">
          <mxGeometry y="59.468147282291056" width="290" height="53.76" as="geometry" />
        </mxCell>
        <mxCell id="yw5yI2BFK46FbXKVoYIi-48" value="QuestionarioBo" style="swimlane;fontStyle=1;align=center;verticalAlign=top;childLayout=stackLayout;horizontal=1;startSize=26;horizontalStack=0;resizeParent=1;resizeParentMax=0;resizeLast=0;collapsible=1;marginBottom=0;whiteSpace=wrap;html=1;" vertex="1" parent="D51h7gy9ocJduFFVFfwa-56">
          <mxGeometry x="20" y="320" width="320" height="119.99814728229106" as="geometry" />
        </mxCell>
        <mxCell id="yw5yI2BFK46FbXKVoYIi-49" value="- questionarioDao: QuestionarioDao" style="text;strokeColor=none;fillColor=none;align=left;verticalAlign=top;spacingLeft=4;spacingRight=4;overflow=hidden;rotatable=0;points=[[0,0.5],[1,0.5]];portConstraint=eastwest;whiteSpace=wrap;html=1;" vertex="1" parent="yw5yI2BFK46FbXKVoYIi-48">
          <mxGeometry y="26" width="320" height="24" as="geometry" />
        </mxCell>
        <mxCell id="yw5yI2BFK46FbXKVoYIi-50" value="" style="line;strokeWidth=1;fillColor=none;align=left;verticalAlign=middle;spacingTop=-1;spacingLeft=3;spacingRight=3;rotatable=0;labelPosition=right;points=[];portConstraint=eastwest;strokeColor=inherit;" vertex="1" parent="yw5yI2BFK46FbXKVoYIi-48">
          <mxGeometry y="50" width="320" height="9.468147282291058" as="geometry" />
        </mxCell>
        <mxCell id="yw5yI2BFK46FbXKVoYIi-51" value="&lt;div&gt;+ QuestionarioBo(questionarioDao: QuestionarioDao)|&lt;/div&gt;&lt;div&gt;+ inserir(questionario: Questionario): void&lt;/div&gt;&lt;div&gt;- validarQuestionario(questionario: Questionario): void&lt;br&gt;&lt;/div&gt;" style="text;strokeColor=none;fillColor=none;align=left;verticalAlign=top;spacingLeft=4;spacingRight=4;overflow=hidden;rotatable=0;points=[[0,0.5],[1,0.5]];portConstraint=eastwest;whiteSpace=wrap;html=1;" vertex="1" parent="yw5yI2BFK46FbXKVoYIi-48">
          <mxGeometry y="59.468147282291056" width="320" height="60.53" as="geometry" />
        </mxCell>
        <mxCell id="yw5yI2BFK46FbXKVoYIi-68" value="QuestFeedbackBo" style="swimlane;fontStyle=1;align=center;verticalAlign=top;childLayout=stackLayout;horizontal=1;startSize=26;horizontalStack=0;resizeParent=1;resizeParentMax=0;resizeLast=0;collapsible=1;marginBottom=0;whiteSpace=wrap;html=1;" vertex="1" parent="D51h7gy9ocJduFFVFfwa-56">
          <mxGeometry x="20" y="459.99576271186436" width="350" height="119.99962594973698" as="geometry" />
        </mxCell>
        <mxCell id="yw5yI2BFK46FbXKVoYIi-69" value="- questFeedbackDao: QuestFeedbackDao" style="text;strokeColor=none;fillColor=none;align=left;verticalAlign=top;spacingLeft=4;spacingRight=4;overflow=hidden;rotatable=0;points=[[0,0.5],[1,0.5]];portConstraint=eastwest;whiteSpace=wrap;html=1;" vertex="1" parent="yw5yI2BFK46FbXKVoYIi-68">
          <mxGeometry y="26" width="350" height="30.771478667445937" as="geometry" />
        </mxCell>
        <mxCell id="yw5yI2BFK46FbXKVoYIi-70" value="" style="line;strokeWidth=1;fillColor=none;align=left;verticalAlign=middle;spacingTop=-1;spacingLeft=3;spacingRight=3;rotatable=0;labelPosition=right;points=[];portConstraint=eastwest;strokeColor=inherit;" vertex="1" parent="yw5yI2BFK46FbXKVoYIi-68">
          <mxGeometry y="56.77147866744593" width="350" height="9.468147282291058" as="geometry" />
        </mxCell>
        <mxCell id="yw5yI2BFK46FbXKVoYIi-71" value="&lt;div&gt;+ QuestFeedbackBo(questFeedbackDao: QuestFeedbackDao)&lt;/div&gt;&lt;div&gt;+ inserir(questFeedback: QuestFeedback): void&lt;/div&gt;&lt;div&gt;- validarQuestFeedback(questFeedback: QuestFeedback): void&lt;br&gt;&lt;/div&gt;" style="text;strokeColor=none;fillColor=none;align=left;verticalAlign=top;spacingLeft=4;spacingRight=4;overflow=hidden;rotatable=0;points=[[0,0.5],[1,0.5]];portConstraint=eastwest;whiteSpace=wrap;html=1;" vertex="1" parent="yw5yI2BFK46FbXKVoYIi-68">
          <mxGeometry y="66.23962594973699" width="350" height="53.76" as="geometry" />
        </mxCell>
        <mxCell id="D51h7gy9ocJduFFVFfwa-52" value="Validacoes" style="swimlane;fontStyle=1;align=center;verticalAlign=top;childLayout=stackLayout;horizontal=1;startSize=26;horizontalStack=0;resizeParent=1;resizeParentMax=0;resizeLast=0;collapsible=1;marginBottom=0;whiteSpace=wrap;html=1;" parent="D51h7gy9ocJduFFVFfwa-56" vertex="1">
          <mxGeometry x="20" y="600" width="350" height="109.99827586206897" as="geometry" />
        </mxCell>
        <mxCell id="D51h7gy9ocJduFFVFfwa-54" value="" style="line;strokeWidth=1;fillColor=none;align=left;verticalAlign=middle;spacingTop=-1;spacingLeft=3;spacingRight=3;rotatable=0;labelPosition=right;points=[];portConstraint=eastwest;strokeColor=inherit;" parent="D51h7gy9ocJduFFVFfwa-52" vertex="1">
          <mxGeometry y="26" width="350" height="7.448275862068965" as="geometry" />
        </mxCell>
        <mxCell id="D51h7gy9ocJduFFVFfwa-55" value="+ validarUsuario(nome: String): boolean&lt;div&gt;+ validarEmail(email: String): boolean&lt;/div&gt;&lt;div&gt;+ validarSenha(senha: String): boolean&lt;/div&gt;&lt;div&gt;+ validarTelefone(telefone: String): boolean&lt;/div&gt;" style="text;strokeColor=none;fillColor=none;align=left;verticalAlign=top;spacingLeft=4;spacingRight=4;overflow=hidden;rotatable=0;points=[[0,0.5],[1,0.5]];portConstraint=eastwest;whiteSpace=wrap;html=1;" parent="D51h7gy9ocJduFFVFfwa-52" vertex="1">
          <mxGeometry y="33.44827586206897" width="350" height="76.55" as="geometry" />
        </mxCell>
        <mxCell id="D51h7gy9ocJduFFVFfwa-57" value="Questionario" style="swimlane;fontStyle=1;align=center;verticalAlign=top;childLayout=stackLayout;horizontal=1;startSize=26;horizontalStack=0;resizeParent=1;resizeParentMax=0;resizeLast=0;collapsible=1;marginBottom=0;whiteSpace=wrap;html=1;" parent="1" vertex="1">
          <mxGeometry x="510" y="-667" width="259" height="440" as="geometry" />
        </mxCell>
        <mxCell id="D51h7gy9ocJduFFVFfwa-58" value="- id: int&lt;div&gt;- nome: String&lt;/div&gt;&lt;div&gt;- telefone: long&amp;nbsp;&lt;/div&gt;&lt;div&gt;- email: String&amp;nbsp;&lt;/div&gt;&lt;div&gt;- nomeEmpresa: String&amp;nbsp; &amp;nbsp; &amp;nbsp;&lt;/div&gt;&lt;div&gt;- necessidadeEmpresa: String&amp;nbsp;&lt;/div&gt;&lt;div&gt;- produtoImplantado: String&amp;nbsp;&amp;nbsp;&lt;/div&gt;&lt;div&gt;- empresaFuncionamento: int&amp;nbsp;&lt;/div&gt;&lt;div&gt;- estrategiasMarketing: int&amp;nbsp; &amp;nbsp;&amp;nbsp;&lt;/div&gt;&lt;div&gt;- iaAutomacoes: int&lt;/div&gt;&lt;div&gt;- desenvolverEstrategia: int&lt;/div&gt;&lt;div&gt;- melhorarComunicacao: int&lt;/div&gt;&lt;div&gt;- ambienteIntegrado: int&amp;nbsp;&lt;/div&gt;&lt;div&gt;- aumentoProdutividade: int&lt;/div&gt;&lt;div&gt;- melhorarCapacitacao: int&lt;/div&gt;&lt;div&gt;- reducaoCusto: int&amp;nbsp;&lt;/div&gt;&lt;div&gt;- aumentarConversao: int&lt;/div&gt;&lt;div&gt;- potencializarVendas: int&amp;nbsp;&lt;/div&gt;&lt;div&gt;- acelerarVendas: int&lt;/div&gt;&lt;div&gt;- riquezaDados: int&lt;/div&gt;&lt;div&gt;- melhorarExperiencia: int&lt;/div&gt;&lt;div&gt;- mostrarDiferencial: int&lt;/div&gt;&lt;div&gt;- criarJornada: int&amp;nbsp;&lt;/div&gt;&lt;div&gt;- mktOportunidade: int&lt;/div&gt;&lt;div&gt;- data: Timestamp&lt;br&gt;&lt;/div&gt;" style="text;strokeColor=none;fillColor=none;align=left;verticalAlign=top;spacingLeft=4;spacingRight=4;overflow=hidden;rotatable=0;points=[[0,0.5],[1,0.5]];portConstraint=eastwest;whiteSpace=wrap;html=1;" parent="D51h7gy9ocJduFFVFfwa-57" vertex="1">
          <mxGeometry y="26" width="259" height="364" as="geometry" />
        </mxCell>
        <mxCell id="D51h7gy9ocJduFFVFfwa-59" value="" style="line;strokeWidth=1;fillColor=none;align=left;verticalAlign=middle;spacingTop=-1;spacingLeft=3;spacingRight=3;rotatable=0;labelPosition=right;points=[];portConstraint=eastwest;strokeColor=inherit;" parent="D51h7gy9ocJduFFVFfwa-57" vertex="1">
          <mxGeometry y="390" width="259" height="8" as="geometry" />
        </mxCell>
        <mxCell id="D51h7gy9ocJduFFVFfwa-60" value="+ getters &amp;amp; setters&lt;div&gt;+ toString(): String&lt;/div&gt;" style="text;strokeColor=none;fillColor=none;align=left;verticalAlign=top;spacingLeft=4;spacingRight=4;overflow=hidden;rotatable=0;points=[[0,0.5],[1,0.5]];portConstraint=eastwest;whiteSpace=wrap;html=1;" parent="D51h7gy9ocJduFFVFfwa-57" vertex="1">
          <mxGeometry y="398" width="259" height="42" as="geometry" />
        </mxCell>
        <mxCell id="D51h7gy9ocJduFFVFfwa-61" value="Contato" style="swimlane;fontStyle=1;align=center;verticalAlign=top;childLayout=stackLayout;horizontal=1;startSize=26;horizontalStack=0;resizeParent=1;resizeParentMax=0;resizeLast=0;collapsible=1;marginBottom=0;whiteSpace=wrap;html=1;" parent="1" vertex="1">
          <mxGeometry x="320" y="-667" width="160" height="230" as="geometry" />
        </mxCell>
        <mxCell id="D51h7gy9ocJduFFVFfwa-62" value="- id: int&amp;nbsp;&lt;div&gt;- nome: String&lt;/div&gt;&lt;div&gt;&lt;span style=&quot;background-color: initial;&quot;&gt;- email: String&lt;/span&gt;&lt;/div&gt;&lt;div&gt;&lt;span style=&quot;background-color: initial;&quot;&gt;- telefone: String&amp;nbsp;&lt;/span&gt;&lt;br&gt;&lt;/div&gt;&lt;div&gt;- segmento: String&lt;/div&gt;&lt;div&gt;- cargo: String&lt;/div&gt;&lt;div&gt;- mensagem: String&lt;/div&gt;&lt;div&gt;- data: Timestamp&lt;/div&gt;&lt;div&gt;- produtoId: int&lt;/div&gt;&lt;div&gt;- tamanhoEmpresaId: int&lt;/div&gt;" style="text;strokeColor=none;fillColor=none;align=left;verticalAlign=top;spacingLeft=4;spacingRight=4;overflow=hidden;rotatable=0;points=[[0,0.5],[1,0.5]];portConstraint=eastwest;whiteSpace=wrap;html=1;" parent="D51h7gy9ocJduFFVFfwa-61" vertex="1">
          <mxGeometry y="26" width="160" height="154" as="geometry" />
        </mxCell>
        <mxCell id="D51h7gy9ocJduFFVFfwa-63" value="" style="line;strokeWidth=1;fillColor=none;align=left;verticalAlign=middle;spacingTop=-1;spacingLeft=3;spacingRight=3;rotatable=0;labelPosition=right;points=[];portConstraint=eastwest;strokeColor=inherit;" parent="D51h7gy9ocJduFFVFfwa-61" vertex="1">
          <mxGeometry y="180" width="160" height="10" as="geometry" />
        </mxCell>
        <mxCell id="D51h7gy9ocJduFFVFfwa-64" value="+ getters &amp;amp; setters&lt;div&gt;+ toString(): String&lt;/div&gt;" style="text;strokeColor=none;fillColor=none;align=left;verticalAlign=top;spacingLeft=4;spacingRight=4;overflow=hidden;rotatable=0;points=[[0,0.5],[1,0.5]];portConstraint=eastwest;whiteSpace=wrap;html=1;" parent="D51h7gy9ocJduFFVFfwa-61" vertex="1">
          <mxGeometry y="190" width="160" height="40" as="geometry" />
        </mxCell>
        <mxCell id="D51h7gy9ocJduFFVFfwa-65" value="Cadastro" style="swimlane;fontStyle=1;align=center;verticalAlign=top;childLayout=stackLayout;horizontal=1;startSize=26;horizontalStack=0;resizeParent=1;resizeParentMax=0;resizeLast=0;collapsible=1;marginBottom=0;whiteSpace=wrap;html=1;" parent="1" vertex="1">
          <mxGeometry x="130" y="-470" width="160" height="220" as="geometry" />
        </mxCell>
        <mxCell id="D51h7gy9ocJduFFVFfwa-66" value="- id: int&amp;nbsp;&lt;div&gt;- nome: String&lt;/div&gt;&lt;div&gt;- sobrenome: String&lt;/div&gt;&lt;div&gt;- email: String&lt;/div&gt;&lt;div&gt;- celular: String&lt;/div&gt;&lt;div&gt;- senha: String&lt;span style=&quot;background-color: initial;&quot;&gt;&amp;nbsp;&lt;/span&gt;&lt;/div&gt;&lt;div&gt;- data: Timestamp&lt;/div&gt;&lt;div&gt;- generoId: int&lt;/div&gt;&lt;div&gt;- sobreEmpresaId: int&lt;/div&gt;" style="text;strokeColor=none;fillColor=none;align=left;verticalAlign=top;spacingLeft=4;spacingRight=4;overflow=hidden;rotatable=0;points=[[0,0.5],[1,0.5]];portConstraint=eastwest;whiteSpace=wrap;html=1;" parent="D51h7gy9ocJduFFVFfwa-65" vertex="1">
          <mxGeometry y="26" width="160" height="144" as="geometry" />
        </mxCell>
        <mxCell id="D51h7gy9ocJduFFVFfwa-67" value="" style="line;strokeWidth=1;fillColor=none;align=left;verticalAlign=middle;spacingTop=-1;spacingLeft=3;spacingRight=3;rotatable=0;labelPosition=right;points=[];portConstraint=eastwest;strokeColor=inherit;" parent="D51h7gy9ocJduFFVFfwa-65" vertex="1">
          <mxGeometry y="170" width="160" height="8" as="geometry" />
        </mxCell>
        <mxCell id="D51h7gy9ocJduFFVFfwa-68" value="+ getters &amp;amp; setters&lt;div&gt;+ toString(): String&lt;/div&gt;" style="text;strokeColor=none;fillColor=none;align=left;verticalAlign=top;spacingLeft=4;spacingRight=4;overflow=hidden;rotatable=0;points=[[0,0.5],[1,0.5]];portConstraint=eastwest;whiteSpace=wrap;html=1;" parent="D51h7gy9ocJduFFVFfwa-65" vertex="1">
          <mxGeometry y="178" width="160" height="42" as="geometry" />
        </mxCell>
        <mxCell id="D51h7gy9ocJduFFVFfwa-77" value="&lt;span style=&quot;font-size: 18px;&quot;&gt;&lt;b&gt;VO&lt;/b&gt;&lt;/span&gt;" style="text;html=1;align=center;verticalAlign=middle;resizable=0;points=[];autosize=1;strokeColor=none;fillColor=none;" parent="1" vertex="1">
          <mxGeometry x="58" y="-695" width="50" height="40" as="geometry" />
        </mxCell>
        <mxCell id="D51h7gy9ocJduFFVFfwa-80" value="&lt;b&gt;&lt;font style=&quot;font-size: 18px;&quot;&gt;DAO&lt;/font&gt;&lt;/b&gt;" style="text;html=1;align=center;verticalAlign=middle;resizable=0;points=[];autosize=1;strokeColor=none;fillColor=none;" parent="1" vertex="1">
          <mxGeometry x="58" y="-210" width="60" height="40" as="geometry" />
        </mxCell>
        <mxCell id="D51h7gy9ocJduFFVFfwa-81" value="CadastroDao" style="swimlane;fontStyle=1;align=center;verticalAlign=top;childLayout=stackLayout;horizontal=1;startSize=26;horizontalStack=0;resizeParent=1;resizeParentMax=0;resizeLast=0;collapsible=1;marginBottom=0;whiteSpace=wrap;html=1;" parent="1" vertex="1">
          <mxGeometry x="74" y="-170" width="240" height="110" as="geometry" />
        </mxCell>
        <mxCell id="D51h7gy9ocJduFFVFfwa-82" value="&amp;lt;&amp;lt; interface &amp;gt;&amp;gt;" style="text;strokeColor=none;fillColor=none;align=left;verticalAlign=top;spacingLeft=4;spacingRight=4;overflow=hidden;rotatable=0;points=[[0,0.5],[1,0.5]];portConstraint=eastwest;whiteSpace=wrap;html=1;" parent="D51h7gy9ocJduFFVFfwa-81" vertex="1">
          <mxGeometry y="26" width="240" height="26" as="geometry" />
        </mxCell>
        <mxCell id="D51h7gy9ocJduFFVFfwa-83" value="" style="line;strokeWidth=1;fillColor=none;align=left;verticalAlign=middle;spacingTop=-1;spacingLeft=3;spacingRight=3;rotatable=0;labelPosition=right;points=[];portConstraint=eastwest;strokeColor=inherit;" parent="D51h7gy9ocJduFFVFfwa-81" vertex="1">
          <mxGeometry y="52" width="240" height="8" as="geometry" />
        </mxCell>
        <mxCell id="D51h7gy9ocJduFFVFfwa-84" value="+ inserir(cadastro: Cadastro): void&amp;nbsp;&lt;div&gt;+ atualizar(cadastro: Cadastro): void&lt;br&gt;&lt;/div&gt;" style="text;strokeColor=none;fillColor=none;align=left;verticalAlign=top;spacingLeft=4;spacingRight=4;overflow=hidden;rotatable=0;points=[[0,0.5],[1,0.5]];portConstraint=eastwest;whiteSpace=wrap;html=1;" parent="D51h7gy9ocJduFFVFfwa-81" vertex="1">
          <mxGeometry y="60" width="240" height="50" as="geometry" />
        </mxCell>
        <mxCell id="D51h7gy9ocJduFFVFfwa-85" value="QuestFeedbackDao" style="swimlane;fontStyle=1;align=center;verticalAlign=top;childLayout=stackLayout;horizontal=1;startSize=26;horizontalStack=0;resizeParent=1;resizeParentMax=0;resizeLast=0;collapsible=1;marginBottom=0;whiteSpace=wrap;html=1;" parent="1" vertex="1">
          <mxGeometry x="74" y="-50" width="240" height="100" as="geometry" />
        </mxCell>
        <mxCell id="D51h7gy9ocJduFFVFfwa-86" value="&amp;lt;&amp;lt; interface &amp;gt;&amp;gt;" style="text;strokeColor=none;fillColor=none;align=left;verticalAlign=top;spacingLeft=4;spacingRight=4;overflow=hidden;rotatable=0;points=[[0,0.5],[1,0.5]];portConstraint=eastwest;whiteSpace=wrap;html=1;" parent="D51h7gy9ocJduFFVFfwa-85" vertex="1">
          <mxGeometry y="26" width="240" height="26" as="geometry" />
        </mxCell>
        <mxCell id="D51h7gy9ocJduFFVFfwa-87" value="" style="line;strokeWidth=1;fillColor=none;align=left;verticalAlign=middle;spacingTop=-1;spacingLeft=3;spacingRight=3;rotatable=0;labelPosition=right;points=[];portConstraint=eastwest;strokeColor=inherit;" parent="D51h7gy9ocJduFFVFfwa-85" vertex="1">
          <mxGeometry y="52" width="240" height="8" as="geometry" />
        </mxCell>
        <mxCell id="D51h7gy9ocJduFFVFfwa-88" value="&lt;div&gt;+ inserir(questFeedback: QuestFeedback): void&lt;br&gt;&lt;/div&gt;" style="text;strokeColor=none;fillColor=none;align=left;verticalAlign=top;spacingLeft=4;spacingRight=4;overflow=hidden;rotatable=0;points=[[0,0.5],[1,0.5]];portConstraint=eastwest;whiteSpace=wrap;html=1;" parent="D51h7gy9ocJduFFVFfwa-85" vertex="1">
          <mxGeometry y="60" width="240" height="40" as="geometry" />
        </mxCell>
        <mxCell id="D51h7gy9ocJduFFVFfwa-89" value="ContatoDao" style="swimlane;fontStyle=1;align=center;verticalAlign=top;childLayout=stackLayout;horizontal=1;startSize=26;horizontalStack=0;resizeParent=1;resizeParentMax=0;resizeLast=0;collapsible=1;marginBottom=0;whiteSpace=wrap;html=1;" parent="1" vertex="1">
          <mxGeometry x="74" y="70" width="286" height="90" as="geometry" />
        </mxCell>
        <mxCell id="D51h7gy9ocJduFFVFfwa-90" value="&amp;lt;&amp;lt; interface &amp;gt;&amp;gt;" style="text;strokeColor=none;fillColor=none;align=left;verticalAlign=top;spacingLeft=4;spacingRight=4;overflow=hidden;rotatable=0;points=[[0,0.5],[1,0.5]];portConstraint=eastwest;whiteSpace=wrap;html=1;" parent="D51h7gy9ocJduFFVFfwa-89" vertex="1">
          <mxGeometry y="26" width="286" height="26" as="geometry" />
        </mxCell>
        <mxCell id="D51h7gy9ocJduFFVFfwa-91" value="" style="line;strokeWidth=1;fillColor=none;align=left;verticalAlign=middle;spacingTop=-1;spacingLeft=3;spacingRight=3;rotatable=0;labelPosition=right;points=[];portConstraint=eastwest;strokeColor=inherit;" parent="D51h7gy9ocJduFFVFfwa-89" vertex="1">
          <mxGeometry y="52" width="286" height="8" as="geometry" />
        </mxCell>
        <mxCell id="D51h7gy9ocJduFFVFfwa-92" value="&lt;div&gt;+ inserir(contato: Contato): void&lt;br&gt;&lt;/div&gt;" style="text;strokeColor=none;fillColor=none;align=left;verticalAlign=top;spacingLeft=4;spacingRight=4;overflow=hidden;rotatable=0;points=[[0,0.5],[1,0.5]];portConstraint=eastwest;whiteSpace=wrap;html=1;" parent="D51h7gy9ocJduFFVFfwa-89" vertex="1">
          <mxGeometry y="60" width="286" height="30" as="geometry" />
        </mxCell>
        <mxCell id="D51h7gy9ocJduFFVFfwa-97" value="" style="shape=folder;fontStyle=1;spacingTop=10;tabWidth=40;tabHeight=14;tabPosition=left;html=1;whiteSpace=wrap;fillColor=#ffe6cc;strokeColor=#d79b00;" parent="1" vertex="1">
          <mxGeometry x="434" y="-200" width="340" height="500" as="geometry" />
        </mxCell>
        <mxCell id="D51h7gy9ocJduFFVFfwa-98" value="&lt;b&gt;&lt;font style=&quot;font-size: 18px;&quot;&gt;IMPL&lt;/font&gt;&lt;/b&gt;" style="text;html=1;align=center;verticalAlign=middle;resizable=0;points=[];autosize=1;strokeColor=none;fillColor=none;" parent="1" vertex="1">
          <mxGeometry x="429" y="-200" width="70" height="40" as="geometry" />
        </mxCell>
        <mxCell id="D51h7gy9ocJduFFVFfwa-99" value="QuestionarioDao" style="swimlane;fontStyle=1;align=center;verticalAlign=top;childLayout=stackLayout;horizontal=1;startSize=26;horizontalStack=0;resizeParent=1;resizeParentMax=0;resizeLast=0;collapsible=1;marginBottom=0;whiteSpace=wrap;html=1;" parent="1" vertex="1">
          <mxGeometry x="74" y="170" width="286" height="90" as="geometry" />
        </mxCell>
        <mxCell id="D51h7gy9ocJduFFVFfwa-100" value="&amp;lt;&amp;lt; interface &amp;gt;&amp;gt;" style="text;strokeColor=none;fillColor=none;align=left;verticalAlign=top;spacingLeft=4;spacingRight=4;overflow=hidden;rotatable=0;points=[[0,0.5],[1,0.5]];portConstraint=eastwest;whiteSpace=wrap;html=1;" parent="D51h7gy9ocJduFFVFfwa-99" vertex="1">
          <mxGeometry y="26" width="286" height="26" as="geometry" />
        </mxCell>
        <mxCell id="D51h7gy9ocJduFFVFfwa-101" value="" style="line;strokeWidth=1;fillColor=none;align=left;verticalAlign=middle;spacingTop=-1;spacingLeft=3;spacingRight=3;rotatable=0;labelPosition=right;points=[];portConstraint=eastwest;strokeColor=inherit;" parent="D51h7gy9ocJduFFVFfwa-99" vertex="1">
          <mxGeometry y="52" width="286" height="8" as="geometry" />
        </mxCell>
        <mxCell id="D51h7gy9ocJduFFVFfwa-102" value="&lt;div&gt;+ inserir(questionario: Questionario): void&lt;br&gt;&lt;/div&gt;" style="text;strokeColor=none;fillColor=none;align=left;verticalAlign=top;spacingLeft=4;spacingRight=4;overflow=hidden;rotatable=0;points=[[0,0.5],[1,0.5]];portConstraint=eastwest;whiteSpace=wrap;html=1;" parent="D51h7gy9ocJduFFVFfwa-99" vertex="1">
          <mxGeometry y="60" width="286" height="30" as="geometry" />
        </mxCell>
        <mxCell id="D51h7gy9ocJduFFVFfwa-107" value="CadastroDaoImpl" style="swimlane;fontStyle=1;align=center;verticalAlign=top;childLayout=stackLayout;horizontal=1;startSize=26;horizontalStack=0;resizeParent=1;resizeParentMax=0;resizeLast=0;collapsible=1;marginBottom=0;whiteSpace=wrap;html=1;" parent="1" vertex="1">
          <mxGeometry x="460" y="-160" width="280" height="110" as="geometry" />
        </mxCell>
        <mxCell id="D51h7gy9ocJduFFVFfwa-108" value="- connection: Connection" style="text;strokeColor=none;fillColor=none;align=left;verticalAlign=top;spacingLeft=4;spacingRight=4;overflow=hidden;rotatable=0;points=[[0,0.5],[1,0.5]];portConstraint=eastwest;whiteSpace=wrap;html=1;" parent="D51h7gy9ocJduFFVFfwa-107" vertex="1">
          <mxGeometry y="26" width="280" height="26" as="geometry" />
        </mxCell>
        <mxCell id="D51h7gy9ocJduFFVFfwa-109" value="" style="line;strokeWidth=1;fillColor=none;align=left;verticalAlign=middle;spacingTop=-1;spacingLeft=3;spacingRight=3;rotatable=0;labelPosition=right;points=[];portConstraint=eastwest;strokeColor=inherit;" parent="D51h7gy9ocJduFFVFfwa-107" vertex="1">
          <mxGeometry y="52" width="280" height="8" as="geometry" />
        </mxCell>
        <mxCell id="D51h7gy9ocJduFFVFfwa-110" value="+ inserir(cadastro: Cadastro): void&lt;div&gt;+ atualizar(cadastro: Cadastro): void&lt;br&gt;&lt;/div&gt;" style="text;strokeColor=none;fillColor=none;align=left;verticalAlign=top;spacingLeft=4;spacingRight=4;overflow=hidden;rotatable=0;points=[[0,0.5],[1,0.5]];portConstraint=eastwest;whiteSpace=wrap;html=1;" parent="D51h7gy9ocJduFFVFfwa-107" vertex="1">
          <mxGeometry y="60" width="280" height="50" as="geometry" />
        </mxCell>
        <mxCell id="D51h7gy9ocJduFFVFfwa-111" value="QuestFeedbackDaoImpl" style="swimlane;fontStyle=1;align=center;verticalAlign=top;childLayout=stackLayout;horizontal=1;startSize=26;horizontalStack=0;resizeParent=1;resizeParentMax=0;resizeLast=0;collapsible=1;marginBottom=0;whiteSpace=wrap;html=1;" parent="1" vertex="1">
          <mxGeometry x="460" y="-30" width="280" height="90" as="geometry" />
        </mxCell>
        <mxCell id="D51h7gy9ocJduFFVFfwa-112" value="- connection: Connection" style="text;strokeColor=none;fillColor=none;align=left;verticalAlign=top;spacingLeft=4;spacingRight=4;overflow=hidden;rotatable=0;points=[[0,0.5],[1,0.5]];portConstraint=eastwest;whiteSpace=wrap;html=1;" parent="D51h7gy9ocJduFFVFfwa-111" vertex="1">
          <mxGeometry y="26" width="280" height="26" as="geometry" />
        </mxCell>
        <mxCell id="D51h7gy9ocJduFFVFfwa-113" value="" style="line;strokeWidth=1;fillColor=none;align=left;verticalAlign=middle;spacingTop=-1;spacingLeft=3;spacingRight=3;rotatable=0;labelPosition=right;points=[];portConstraint=eastwest;strokeColor=inherit;" parent="D51h7gy9ocJduFFVFfwa-111" vertex="1">
          <mxGeometry y="52" width="280" height="8" as="geometry" />
        </mxCell>
        <mxCell id="D51h7gy9ocJduFFVFfwa-114" value="+ inserir(questFeedback: QuestFeedback): void" style="text;strokeColor=none;fillColor=none;align=left;verticalAlign=top;spacingLeft=4;spacingRight=4;overflow=hidden;rotatable=0;points=[[0,0.5],[1,0.5]];portConstraint=eastwest;whiteSpace=wrap;html=1;" parent="D51h7gy9ocJduFFVFfwa-111" vertex="1">
          <mxGeometry y="60" width="280" height="30" as="geometry" />
        </mxCell>
        <mxCell id="D51h7gy9ocJduFFVFfwa-115" value="ContatoDaoImpl" style="swimlane;fontStyle=1;align=center;verticalAlign=top;childLayout=stackLayout;horizontal=1;startSize=26;horizontalStack=0;resizeParent=1;resizeParentMax=0;resizeLast=0;collapsible=1;marginBottom=0;whiteSpace=wrap;html=1;" parent="1" vertex="1">
          <mxGeometry x="456" y="80" width="280" height="90" as="geometry" />
        </mxCell>
        <mxCell id="D51h7gy9ocJduFFVFfwa-116" value="- connection: Connection" style="text;strokeColor=none;fillColor=none;align=left;verticalAlign=top;spacingLeft=4;spacingRight=4;overflow=hidden;rotatable=0;points=[[0,0.5],[1,0.5]];portConstraint=eastwest;whiteSpace=wrap;html=1;" parent="D51h7gy9ocJduFFVFfwa-115" vertex="1">
          <mxGeometry y="26" width="280" height="26" as="geometry" />
        </mxCell>
        <mxCell id="D51h7gy9ocJduFFVFfwa-117" value="" style="line;strokeWidth=1;fillColor=none;align=left;verticalAlign=middle;spacingTop=-1;spacingLeft=3;spacingRight=3;rotatable=0;labelPosition=right;points=[];portConstraint=eastwest;strokeColor=inherit;" parent="D51h7gy9ocJduFFVFfwa-115" vertex="1">
          <mxGeometry y="52" width="280" height="8" as="geometry" />
        </mxCell>
        <mxCell id="D51h7gy9ocJduFFVFfwa-118" value="+ inserir(contato: Contato): void" style="text;strokeColor=none;fillColor=none;align=left;verticalAlign=top;spacingLeft=4;spacingRight=4;overflow=hidden;rotatable=0;points=[[0,0.5],[1,0.5]];portConstraint=eastwest;whiteSpace=wrap;html=1;" parent="D51h7gy9ocJduFFVFfwa-115" vertex="1">
          <mxGeometry y="60" width="280" height="30" as="geometry" />
        </mxCell>
        <mxCell id="D51h7gy9ocJduFFVFfwa-123" value="QuestionarioDaoImpl" style="swimlane;fontStyle=1;align=center;verticalAlign=top;childLayout=stackLayout;horizontal=1;startSize=26;horizontalStack=0;resizeParent=1;resizeParentMax=0;resizeLast=0;collapsible=1;marginBottom=0;whiteSpace=wrap;html=1;" parent="1" vertex="1">
          <mxGeometry x="456" y="190" width="280" height="90" as="geometry" />
        </mxCell>
        <mxCell id="D51h7gy9ocJduFFVFfwa-124" value="- connection: Connection" style="text;strokeColor=none;fillColor=none;align=left;verticalAlign=top;spacingLeft=4;spacingRight=4;overflow=hidden;rotatable=0;points=[[0,0.5],[1,0.5]];portConstraint=eastwest;whiteSpace=wrap;html=1;" parent="D51h7gy9ocJduFFVFfwa-123" vertex="1">
          <mxGeometry y="26" width="280" height="26" as="geometry" />
        </mxCell>
        <mxCell id="D51h7gy9ocJduFFVFfwa-125" value="" style="line;strokeWidth=1;fillColor=none;align=left;verticalAlign=middle;spacingTop=-1;spacingLeft=3;spacingRight=3;rotatable=0;labelPosition=right;points=[];portConstraint=eastwest;strokeColor=inherit;" parent="D51h7gy9ocJduFFVFfwa-123" vertex="1">
          <mxGeometry y="52" width="280" height="8" as="geometry" />
        </mxCell>
        <mxCell id="D51h7gy9ocJduFFVFfwa-126" value="+ inserir(questionario: Questionario): void" style="text;strokeColor=none;fillColor=none;align=left;verticalAlign=top;spacingLeft=4;spacingRight=4;overflow=hidden;rotatable=0;points=[[0,0.5],[1,0.5]];portConstraint=eastwest;whiteSpace=wrap;html=1;" parent="D51h7gy9ocJduFFVFfwa-123" vertex="1">
          <mxGeometry y="60" width="280" height="30" as="geometry" />
        </mxCell>
        <mxCell id="D51h7gy9ocJduFFVFfwa-131" value="&lt;span style=&quot;font-size: 18px;&quot;&gt;&lt;b&gt;MODEL&lt;/b&gt;&lt;/span&gt;" style="text;html=1;align=center;verticalAlign=middle;resizable=0;points=[];autosize=1;strokeColor=none;fillColor=none;" parent="1" vertex="1">
          <mxGeometry x="108" y="-730" width="90" height="40" as="geometry" />
        </mxCell>
        <mxCell id="D51h7gy9ocJduFFVFfwa-132" value="&lt;span style=&quot;font-size: 18px;&quot;&gt;&lt;b&gt;CONTROLLER&lt;/b&gt;&lt;/span&gt;" style="text;html=1;align=center;verticalAlign=middle;resizable=0;points=[];autosize=1;strokeColor=none;fillColor=none;" parent="1" vertex="1">
          <mxGeometry x="92" y="1240" width="150" height="40" as="geometry" />
        </mxCell>
        <mxCell id="D51h7gy9ocJduFFVFfwa-134" value="" style="endArrow=block;dashed=1;endFill=0;endSize=12;html=1;rounded=0;entryX=-0.014;entryY=0.277;entryDx=0;entryDy=0;entryPerimeter=0;exitX=1.01;exitY=0.398;exitDx=0;exitDy=0;exitPerimeter=0;" parent="1" source="D51h7gy9ocJduFFVFfwa-84" target="D51h7gy9ocJduFFVFfwa-110" edge="1">
          <mxGeometry width="160" relative="1" as="geometry">
            <mxPoint x="320" y="-60" as="sourcePoint" />
            <mxPoint x="630" y="140" as="targetPoint" />
          </mxGeometry>
        </mxCell>
        <mxCell id="D51h7gy9ocJduFFVFfwa-135" value="" style="endArrow=block;dashed=1;endFill=0;endSize=12;html=1;rounded=0;exitX=0.992;exitY=0.236;exitDx=0;exitDy=0;exitPerimeter=0;entryX=0.002;entryY=0.977;entryDx=0;entryDy=0;entryPerimeter=0;" parent="1" source="D51h7gy9ocJduFFVFfwa-88" edge="1" target="D51h7gy9ocJduFFVFfwa-112">
          <mxGeometry width="160" relative="1" as="geometry">
            <mxPoint x="320" y="91" as="sourcePoint" />
            <mxPoint x="460" y="90" as="targetPoint" />
          </mxGeometry>
        </mxCell>
        <mxCell id="D51h7gy9ocJduFFVFfwa-136" value="" style="endArrow=block;dashed=1;endFill=0;endSize=12;html=1;rounded=0;entryX=0.007;entryY=-0.012;entryDx=0;entryDy=0;entryPerimeter=0;exitX=1.009;exitY=0.236;exitDx=0;exitDy=0;exitPerimeter=0;" parent="1" source="D51h7gy9ocJduFFVFfwa-92" edge="1" target="D51h7gy9ocJduFFVFfwa-118">
          <mxGeometry width="160" relative="1" as="geometry">
            <mxPoint x="312" y="251" as="sourcePoint" />
            <mxPoint x="460" y="250" as="targetPoint" />
          </mxGeometry>
        </mxCell>
        <mxCell id="D51h7gy9ocJduFFVFfwa-138" value="" style="endArrow=block;dashed=1;endFill=0;endSize=12;html=1;rounded=0;entryX=0.005;entryY=0.144;entryDx=0;entryDy=0;entryPerimeter=0;exitX=1.005;exitY=0.91;exitDx=0;exitDy=0;exitPerimeter=0;" parent="1" target="D51h7gy9ocJduFFVFfwa-124" edge="1" source="D51h7gy9ocJduFFVFfwa-100">
          <mxGeometry width="160" relative="1" as="geometry">
            <mxPoint x="371" y="440" as="sourcePoint" />
            <mxPoint x="445" y="441" as="targetPoint" />
          </mxGeometry>
        </mxCell>
        <mxCell id="D51h7gy9ocJduFFVFfwa-141" value="" style="endArrow=open;endFill=1;endSize=12;html=1;rounded=0;exitX=0.5;exitY=1;exitDx=0;exitDy=0;exitPerimeter=0;edgeStyle=orthogonalEdgeStyle;entryX=-0.009;entryY=0.948;entryDx=0;entryDy=0;entryPerimeter=0;" parent="1" source="D51h7gy9ocJduFFVFfwa-47" target="yw5yI2BFK46FbXKVoYIi-10" edge="1">
          <mxGeometry width="160" relative="1" as="geometry">
            <mxPoint x="300" y="860" as="sourcePoint" />
            <mxPoint x="460" y="860" as="targetPoint" />
            <Array as="points">
              <mxPoint x="425" y="433" />
            </Array>
          </mxGeometry>
        </mxCell>
        <mxCell id="D51h7gy9ocJduFFVFfwa-149" value="" style="endArrow=open;endFill=1;endSize=12;html=1;rounded=0;entryX=-0.002;entryY=0.855;entryDx=0;entryDy=0;entryPerimeter=0;edgeStyle=orthogonalEdgeStyle;" parent="1" target="D51h7gy9ocJduFFVFfwa-47" edge="1">
          <mxGeometry width="160" relative="1" as="geometry">
            <mxPoint x="59" y="710" as="sourcePoint" />
            <mxPoint x="523" y="884" as="targetPoint" />
            <Array as="points">
              <mxPoint x="20" y="710" />
              <mxPoint x="20" y="235" />
            </Array>
          </mxGeometry>
        </mxCell>
        <mxCell id="D51h7gy9ocJduFFVFfwa-150" style="edgeStyle=orthogonalEdgeStyle;rounded=0;orthogonalLoop=1;jettySize=auto;html=1;entryX=0.005;entryY=0.163;entryDx=0;entryDy=0;entryPerimeter=0;exitX=0.001;exitY=0.474;exitDx=0;exitDy=0;exitPerimeter=0;" parent="1" source="D51h7gy9ocJduFFVFfwa-45" target="D51h7gy9ocJduFFVFfwa-47" edge="1">
          <mxGeometry relative="1" as="geometry">
            <Array as="points">
              <mxPoint x="20" y="-467" />
              <mxPoint x="20" y="-120" />
              <mxPoint x="64" y="-120" />
            </Array>
          </mxGeometry>
        </mxCell>
        <mxCell id="D51h7gy9ocJduFFVFfwa-73" value="QuestFeedback" style="swimlane;fontStyle=1;align=center;verticalAlign=top;childLayout=stackLayout;horizontal=1;startSize=26;horizontalStack=0;resizeParent=1;resizeParentMax=0;resizeLast=0;collapsible=1;marginBottom=0;whiteSpace=wrap;html=1;" parent="1" vertex="1">
          <mxGeometry x="130" y="-667" width="160" height="180" as="geometry" />
        </mxCell>
        <mxCell id="D51h7gy9ocJduFFVFfwa-74" value="- id: int&amp;nbsp;&lt;div&gt;- nome: String&lt;/div&gt;&lt;div&gt;- email: String&lt;/div&gt;&lt;div&gt;- avaliacao: int&lt;/div&gt;&lt;div&gt;- data: Timestamp&lt;/div&gt;&lt;div&gt;- mensagem: String&lt;/div&gt;" style="text;strokeColor=none;fillColor=none;align=left;verticalAlign=top;spacingLeft=4;spacingRight=4;overflow=hidden;rotatable=0;points=[[0,0.5],[1,0.5]];portConstraint=eastwest;whiteSpace=wrap;html=1;" parent="D51h7gy9ocJduFFVFfwa-73" vertex="1">
          <mxGeometry y="26" width="160" height="104" as="geometry" />
        </mxCell>
        <mxCell id="D51h7gy9ocJduFFVFfwa-75" value="" style="line;strokeWidth=1;fillColor=none;align=left;verticalAlign=middle;spacingTop=-1;spacingLeft=3;spacingRight=3;rotatable=0;labelPosition=right;points=[];portConstraint=eastwest;strokeColor=inherit;" parent="D51h7gy9ocJduFFVFfwa-73" vertex="1">
          <mxGeometry y="130" width="160" height="8" as="geometry" />
        </mxCell>
        <mxCell id="D51h7gy9ocJduFFVFfwa-76" value="+ getters &amp;amp; setters&lt;div&gt;+ toString(): String&lt;/div&gt;" style="text;strokeColor=none;fillColor=none;align=left;verticalAlign=top;spacingLeft=4;spacingRight=4;overflow=hidden;rotatable=0;points=[[0,0.5],[1,0.5]];portConstraint=eastwest;whiteSpace=wrap;html=1;" parent="D51h7gy9ocJduFFVFfwa-73" vertex="1">
          <mxGeometry y="138" width="160" height="42" as="geometry" />
        </mxCell>
        <mxCell id="yw5yI2BFK46FbXKVoYIi-1" value="" style="group" vertex="1" connectable="0" parent="1">
          <mxGeometry x="489.5" y="400" width="300" height="170" as="geometry" />
        </mxCell>
        <mxCell id="yw5yI2BFK46FbXKVoYIi-2" value="" style="shape=folder;fontStyle=1;spacingTop=10;tabWidth=40;tabHeight=14;tabPosition=left;html=1;whiteSpace=wrap;fillColor=#ffe6cc;strokeColor=#d79b00;" vertex="1" parent="yw5yI2BFK46FbXKVoYIi-1">
          <mxGeometry width="300" height="170" as="geometry" />
        </mxCell>
        <mxCell id="yw5yI2BFK46FbXKVoYIi-3" value="ConexaoFactory" style="swimlane;fontStyle=1;align=center;verticalAlign=top;childLayout=stackLayout;horizontal=1;startSize=26;horizontalStack=0;resizeParent=1;resizeParentMax=0;resizeLast=0;collapsible=1;marginBottom=0;whiteSpace=wrap;html=1;" vertex="1" parent="yw5yI2BFK46FbXKVoYIi-1">
          <mxGeometry x="19.35" y="42.41" width="261.29" height="109.9996551724138" as="geometry" />
        </mxCell>
        <mxCell id="yw5yI2BFK46FbXKVoYIi-4" value="+ USER: String&lt;div&gt;+PASSWORD: String&lt;/div&gt;&lt;div&gt;+ URL: String&lt;/div&gt;" style="text;strokeColor=none;fillColor=none;align=left;verticalAlign=top;spacingLeft=4;spacingRight=4;overflow=hidden;rotatable=0;points=[[0,0.5],[1,0.5]];portConstraint=eastwest;whiteSpace=wrap;html=1;" vertex="1" parent="yw5yI2BFK46FbXKVoYIi-3">
          <mxGeometry y="26" width="261.29" height="54" as="geometry" />
        </mxCell>
        <mxCell id="yw5yI2BFK46FbXKVoYIi-5" value="" style="line;strokeWidth=1;fillColor=none;align=left;verticalAlign=middle;spacingTop=-1;spacingLeft=3;spacingRight=3;rotatable=0;labelPosition=right;points=[];portConstraint=eastwest;strokeColor=inherit;" vertex="1" parent="yw5yI2BFK46FbXKVoYIi-3">
          <mxGeometry y="80" width="261.29" height="4.689655172413793" as="geometry" />
        </mxCell>
        <mxCell id="yw5yI2BFK46FbXKVoYIi-6" value="+ getConnection(): Connection" style="text;strokeColor=none;fillColor=none;align=left;verticalAlign=top;spacingLeft=4;spacingRight=4;overflow=hidden;rotatable=0;points=[[0,0.5],[1,0.5]];portConstraint=eastwest;whiteSpace=wrap;html=1;" vertex="1" parent="yw5yI2BFK46FbXKVoYIi-3">
          <mxGeometry y="84.6896551724138" width="261.29" height="25.31" as="geometry" />
        </mxCell>
        <mxCell id="yw5yI2BFK46FbXKVoYIi-10" value="&lt;b&gt;&lt;font style=&quot;font-size: 18px;&quot;&gt;CONNECTION&lt;/font&gt;&lt;/b&gt;" style="text;html=1;align=center;verticalAlign=middle;resizable=0;points=[];autosize=1;strokeColor=none;fillColor=none;" vertex="1" parent="yw5yI2BFK46FbXKVoYIi-1">
          <mxGeometry y="-4.668812260536399" width="140" height="40" as="geometry" />
        </mxCell>
        <mxCell id="yw5yI2BFK46FbXKVoYIi-11" value="" style="group" vertex="1" connectable="0" parent="1">
          <mxGeometry x="500" y="1090" width="300" height="150" as="geometry" />
        </mxCell>
        <mxCell id="yw5yI2BFK46FbXKVoYIi-12" value="" style="shape=folder;fontStyle=1;spacingTop=10;tabWidth=40;tabHeight=14;tabPosition=left;html=1;whiteSpace=wrap;fillColor=#ffe6cc;strokeColor=#d79b00;" vertex="1" parent="yw5yI2BFK46FbXKVoYIi-11">
          <mxGeometry width="300" height="150" as="geometry" />
        </mxCell>
        <mxCell id="yw5yI2BFK46FbXKVoYIi-13" value="Config" style="swimlane;fontStyle=1;align=center;verticalAlign=top;childLayout=stackLayout;horizontal=1;startSize=26;horizontalStack=0;resizeParent=1;resizeParentMax=0;resizeLast=0;collapsible=1;marginBottom=0;whiteSpace=wrap;html=1;" vertex="1" parent="yw5yI2BFK46FbXKVoYIi-11">
          <mxGeometry x="19.36" y="23.4375" width="261.29" height="104.75355603448276" as="geometry" />
        </mxCell>
        <mxCell id="yw5yI2BFK46FbXKVoYIi-14" value="- properties: Properties" style="text;strokeColor=none;fillColor=none;align=left;verticalAlign=top;spacingLeft=4;spacingRight=4;overflow=hidden;rotatable=0;points=[[0,0.5],[1,0.5]];portConstraint=eastwest;whiteSpace=wrap;html=1;" vertex="1" parent="yw5yI2BFK46FbXKVoYIi-13">
          <mxGeometry y="26" width="261.29" height="31.875" as="geometry" />
        </mxCell>
        <mxCell id="yw5yI2BFK46FbXKVoYIi-15" value="" style="line;strokeWidth=1;fillColor=none;align=left;verticalAlign=middle;spacingTop=-1;spacingLeft=3;spacingRight=3;rotatable=0;labelPosition=right;points=[];portConstraint=eastwest;strokeColor=inherit;" vertex="1" parent="yw5yI2BFK46FbXKVoYIi-13">
          <mxGeometry y="57.875" width="261.29" height="4.137931034482759" as="geometry" />
        </mxCell>
        <mxCell id="yw5yI2BFK46FbXKVoYIi-16" value="+ getProperty(key: String): String&lt;div&gt;- loadProperties(): void&lt;/div&gt;" style="text;strokeColor=none;fillColor=none;align=left;verticalAlign=top;spacingLeft=4;spacingRight=4;overflow=hidden;rotatable=0;points=[[0,0.5],[1,0.5]];portConstraint=eastwest;whiteSpace=wrap;html=1;" vertex="1" parent="yw5yI2BFK46FbXKVoYIi-13">
          <mxGeometry y="62.01293103448276" width="261.29" height="42.740625" as="geometry" />
        </mxCell>
        <mxCell id="yw5yI2BFK46FbXKVoYIi-20" value="&lt;b&gt;&lt;font style=&quot;font-size: 18px;&quot;&gt;CONFIG&lt;/font&gt;&lt;/b&gt;" style="text;html=1;align=center;verticalAlign=middle;resizable=0;points=[];autosize=1;strokeColor=none;fillColor=none;" vertex="1" parent="yw5yI2BFK46FbXKVoYIi-11">
          <mxGeometry y="-16.588290229885057" width="90" height="40" as="geometry" />
        </mxCell>
        <mxCell id="yw5yI2BFK46FbXKVoYIi-21" value="" style="endArrow=classic;html=1;rounded=0;exitX=0.529;exitY=0.093;exitDx=0;exitDy=0;exitPerimeter=0;" edge="1" parent="1" source="yw5yI2BFK46FbXKVoYIi-12">
          <mxGeometry width="50" height="50" relative="1" as="geometry">
            <mxPoint x="410" y="720" as="sourcePoint" />
            <mxPoint x="659" y="500" as="targetPoint" />
          </mxGeometry>
        </mxCell>
        <mxCell id="yw5yI2BFK46FbXKVoYIi-22" value="" style="shape=folder;fontStyle=1;spacingTop=10;tabWidth=40;tabHeight=14;tabPosition=left;html=1;whiteSpace=wrap;fillColor=#fff2cc;strokeColor=#d6b656;" vertex="1" parent="1">
          <mxGeometry x="81" y="1564" width="666" height="380" as="geometry" />
        </mxCell>
        <mxCell id="yw5yI2BFK46FbXKVoYIi-23" value="&lt;span style=&quot;font-size: 18px;&quot;&gt;&lt;b&gt;RESOURCES&lt;/b&gt;&lt;/span&gt;" style="text;html=1;align=center;verticalAlign=middle;resizable=0;points=[];autosize=1;strokeColor=none;fillColor=none;" vertex="1" parent="1">
          <mxGeometry x="81" y="1564" width="140" height="40" as="geometry" />
        </mxCell>
        <mxCell id="yw5yI2BFK46FbXKVoYIi-24" value="&lt;blockquote style=&quot;margin: 0 0 0 40px; border: none; padding: 0px;&quot;&gt;CadastroResource&lt;/blockquote&gt;" style="swimlane;fontStyle=1;align=center;verticalAlign=top;childLayout=stackLayout;horizontal=1;startSize=26;horizontalStack=0;resizeParent=1;resizeParentMax=0;resizeLast=0;collapsible=1;marginBottom=0;whiteSpace=wrap;html=1;" vertex="1" parent="1">
          <mxGeometry x="94" y="1604" width="320" height="120" as="geometry">
            <mxRectangle x="70" y="340" width="240" height="30" as="alternateBounds" />
          </mxGeometry>
        </mxCell>
        <mxCell id="yw5yI2BFK46FbXKVoYIi-25" value="- cadastroController: CadastroController" style="text;strokeColor=none;fillColor=none;align=left;verticalAlign=top;spacingLeft=4;spacingRight=4;overflow=hidden;rotatable=0;points=[[0,0.5],[1,0.5]];portConstraint=eastwest;whiteSpace=wrap;html=1;" vertex="1" parent="yw5yI2BFK46FbXKVoYIi-24">
          <mxGeometry y="26" width="320" height="26" as="geometry" />
        </mxCell>
        <mxCell id="yw5yI2BFK46FbXKVoYIi-26" value="" style="line;strokeWidth=1;fillColor=none;align=left;verticalAlign=middle;spacingTop=-1;spacingLeft=3;spacingRight=3;rotatable=0;labelPosition=right;points=[];portConstraint=eastwest;strokeColor=inherit;" vertex="1" parent="yw5yI2BFK46FbXKVoYIi-24">
          <mxGeometry y="52" width="320" height="8" as="geometry" />
        </mxCell>
        <mxCell id="yw5yI2BFK46FbXKVoYIi-27" value="&lt;div&gt;&lt;div&gt;+ CadastroResource()&amp;nbsp;&lt;/div&gt;&lt;div&gt;+ inserirCadastro(cadastro: Cadastro): Response&amp;nbsp;&lt;/div&gt;&lt;div&gt;+ atualizarCadastro(cadastro: Cadastro): Response&lt;br&gt;&lt;/div&gt;&lt;/div&gt;" style="text;strokeColor=none;fillColor=none;align=left;verticalAlign=top;spacingLeft=4;spacingRight=4;overflow=hidden;rotatable=0;points=[[0,0.5],[1,0.5]];portConstraint=eastwest;whiteSpace=wrap;html=1;" vertex="1" parent="yw5yI2BFK46FbXKVoYIi-24">
          <mxGeometry y="60" width="320" height="60" as="geometry" />
        </mxCell>
        <mxCell id="yw5yI2BFK46FbXKVoYIi-28" value="QuestionarioResource" style="swimlane;fontStyle=1;align=center;verticalAlign=top;childLayout=stackLayout;horizontal=1;startSize=26;horizontalStack=0;resizeParent=1;resizeParentMax=0;resizeLast=0;collapsible=1;marginBottom=0;whiteSpace=wrap;html=1;" vertex="1" parent="1">
          <mxGeometry x="436" y="1604" width="290" height="120" as="geometry" />
        </mxCell>
        <mxCell id="yw5yI2BFK46FbXKVoYIi-29" value="- questionarioController: QuestionarioController" style="text;strokeColor=none;fillColor=none;align=left;verticalAlign=top;spacingLeft=4;spacingRight=4;overflow=hidden;rotatable=0;points=[[0,0.5],[1,0.5]];portConstraint=eastwest;whiteSpace=wrap;html=1;" vertex="1" parent="yw5yI2BFK46FbXKVoYIi-28">
          <mxGeometry y="26" width="290" height="26" as="geometry" />
        </mxCell>
        <mxCell id="yw5yI2BFK46FbXKVoYIi-30" value="" style="line;strokeWidth=1;fillColor=none;align=left;verticalAlign=middle;spacingTop=-1;spacingLeft=3;spacingRight=3;rotatable=0;labelPosition=right;points=[];portConstraint=eastwest;strokeColor=inherit;" vertex="1" parent="yw5yI2BFK46FbXKVoYIi-28">
          <mxGeometry y="52" width="290" height="8" as="geometry" />
        </mxCell>
        <mxCell id="yw5yI2BFK46FbXKVoYIi-31" value="&lt;div&gt;+ QuestionarioResource()&lt;/div&gt;&lt;div&gt;+ inserirQuestionario(questionario: Questionario): Response&lt;br&gt;&lt;/div&gt;" style="text;strokeColor=none;fillColor=none;align=left;verticalAlign=top;spacingLeft=4;spacingRight=4;overflow=hidden;rotatable=0;points=[[0,0.5],[1,0.5]];portConstraint=eastwest;whiteSpace=wrap;html=1;" vertex="1" parent="yw5yI2BFK46FbXKVoYIi-28">
          <mxGeometry y="60" width="290" height="60" as="geometry" />
        </mxCell>
        <mxCell id="yw5yI2BFK46FbXKVoYIi-32" value="ContatoResource" style="swimlane;fontStyle=1;align=center;verticalAlign=top;childLayout=stackLayout;horizontal=1;startSize=26;horizontalStack=0;resizeParent=1;resizeParentMax=0;resizeLast=0;collapsible=1;marginBottom=0;whiteSpace=wrap;html=1;" vertex="1" parent="1">
          <mxGeometry x="99" y="1734" width="310" height="100" as="geometry" />
        </mxCell>
        <mxCell id="yw5yI2BFK46FbXKVoYIi-33" value="- contatoController: ContatoController" style="text;strokeColor=none;fillColor=none;align=left;verticalAlign=top;spacingLeft=4;spacingRight=4;overflow=hidden;rotatable=0;points=[[0,0.5],[1,0.5]];portConstraint=eastwest;whiteSpace=wrap;html=1;" vertex="1" parent="yw5yI2BFK46FbXKVoYIi-32">
          <mxGeometry y="26" width="310" height="26" as="geometry" />
        </mxCell>
        <mxCell id="yw5yI2BFK46FbXKVoYIi-34" value="" style="line;strokeWidth=1;fillColor=none;align=left;verticalAlign=middle;spacingTop=-1;spacingLeft=3;spacingRight=3;rotatable=0;labelPosition=right;points=[];portConstraint=eastwest;strokeColor=inherit;" vertex="1" parent="yw5yI2BFK46FbXKVoYIi-32">
          <mxGeometry y="52" width="310" height="8" as="geometry" />
        </mxCell>
        <mxCell id="yw5yI2BFK46FbXKVoYIi-35" value="&lt;div&gt;+ ContatoResource()&lt;/div&gt;&lt;div&gt;+ inserirContato(contato: Contato): Response&lt;br&gt;&lt;/div&gt;" style="text;strokeColor=none;fillColor=none;align=left;verticalAlign=top;spacingLeft=4;spacingRight=4;overflow=hidden;rotatable=0;points=[[0,0.5],[1,0.5]];portConstraint=eastwest;whiteSpace=wrap;html=1;" vertex="1" parent="yw5yI2BFK46FbXKVoYIi-32">
          <mxGeometry y="60" width="310" height="40" as="geometry" />
        </mxCell>
        <mxCell id="yw5yI2BFK46FbXKVoYIi-36" value="QuestFeedbackResource" style="swimlane;fontStyle=1;align=center;verticalAlign=top;childLayout=stackLayout;horizontal=1;startSize=26;horizontalStack=0;resizeParent=1;resizeParentMax=0;resizeLast=0;collapsible=1;marginBottom=0;whiteSpace=wrap;html=1;" vertex="1" parent="1">
          <mxGeometry x="426" y="1744" width="300" height="120" as="geometry" />
        </mxCell>
        <mxCell id="yw5yI2BFK46FbXKVoYIi-37" value="- questFeedbackController: QuestFeedbackController" style="text;strokeColor=none;fillColor=none;align=left;verticalAlign=top;spacingLeft=4;spacingRight=4;overflow=hidden;rotatable=0;points=[[0,0.5],[1,0.5]];portConstraint=eastwest;whiteSpace=wrap;html=1;" vertex="1" parent="yw5yI2BFK46FbXKVoYIi-36">
          <mxGeometry y="26" width="300" height="26" as="geometry" />
        </mxCell>
        <mxCell id="yw5yI2BFK46FbXKVoYIi-38" value="" style="line;strokeWidth=1;fillColor=none;align=left;verticalAlign=middle;spacingTop=-1;spacingLeft=3;spacingRight=3;rotatable=0;labelPosition=right;points=[];portConstraint=eastwest;strokeColor=inherit;" vertex="1" parent="yw5yI2BFK46FbXKVoYIi-36">
          <mxGeometry y="52" width="300" height="8" as="geometry" />
        </mxCell>
        <mxCell id="yw5yI2BFK46FbXKVoYIi-39" value="&lt;div&gt;+ QuestFeedbackResource()&lt;/div&gt;&lt;div&gt;+ inserirQuestFeedback(feedback: QuestFeedback): Response&lt;br&gt;&lt;/div&gt;" style="text;strokeColor=none;fillColor=none;align=left;verticalAlign=top;spacingLeft=4;spacingRight=4;overflow=hidden;rotatable=0;points=[[0,0.5],[1,0.5]];portConstraint=eastwest;whiteSpace=wrap;html=1;" vertex="1" parent="yw5yI2BFK46FbXKVoYIi-36">
          <mxGeometry y="60" width="300" height="60" as="geometry" />
        </mxCell>
        <mxCell id="yw5yI2BFK46FbXKVoYIi-40" value="CorsFilter" style="swimlane;fontStyle=1;align=center;verticalAlign=top;childLayout=stackLayout;horizontal=1;startSize=26;horizontalStack=0;resizeParent=1;resizeParentMax=0;resizeLast=0;collapsible=1;marginBottom=0;whiteSpace=wrap;html=1;" vertex="1" parent="1">
          <mxGeometry x="94" y="1854" width="310" height="80" as="geometry" />
        </mxCell>
        <mxCell id="yw5yI2BFK46FbXKVoYIi-41" value="+ filter(requestContext: ContainerRequestContext, responseContext: ContainerResponseContext): void" style="text;strokeColor=none;fillColor=none;align=left;verticalAlign=top;spacingLeft=4;spacingRight=4;overflow=hidden;rotatable=0;points=[[0,0.5],[1,0.5]];portConstraint=eastwest;whiteSpace=wrap;html=1;" vertex="1" parent="yw5yI2BFK46FbXKVoYIi-40">
          <mxGeometry y="26" width="310" height="44" as="geometry" />
        </mxCell>
        <mxCell id="yw5yI2BFK46FbXKVoYIi-42" value="" style="line;strokeWidth=1;fillColor=none;align=left;verticalAlign=middle;spacingTop=-1;spacingLeft=3;spacingRight=3;rotatable=0;labelPosition=right;points=[];portConstraint=eastwest;strokeColor=inherit;" vertex="1" parent="yw5yI2BFK46FbXKVoYIi-40">
          <mxGeometry y="70" width="310" height="10" as="geometry" />
        </mxCell>
        <mxCell id="yw5yI2BFK46FbXKVoYIi-73" value="" style="endArrow=classic;html=1;rounded=0;entryX=0.5;entryY=1;entryDx=0;entryDy=0;entryPerimeter=0;exitX=0.269;exitY=0.033;exitDx=0;exitDy=0;exitPerimeter=0;" edge="1" parent="1" source="D51h7gy9ocJduFFVFfwa-2" target="D51h7gy9ocJduFFVFfwa-46">
          <mxGeometry width="50" height="50" relative="1" as="geometry">
            <mxPoint x="380" y="1310" as="sourcePoint" />
            <mxPoint x="430" y="1260" as="targetPoint" />
          </mxGeometry>
        </mxCell>
        <mxCell id="yw5yI2BFK46FbXKVoYIi-74" value="" style="endArrow=classic;html=1;rounded=0;exitX=0.449;exitY=0.042;exitDx=0;exitDy=0;exitPerimeter=0;" edge="1" parent="1" source="yw5yI2BFK46FbXKVoYIi-22">
          <mxGeometry width="50" height="50" relative="1" as="geometry">
            <mxPoint x="380" y="1610" as="sourcePoint" />
            <mxPoint x="380" y="1550" as="targetPoint" />
          </mxGeometry>
        </mxCell>
      </root>
    </mxGraphModel>
  </diagram>
</mxfile>
